<?xml version="1.0" encoding="utf-8" ?>
<svg xmlns="http://www.w3.org/2000/svg" xmlns:xlink="http://www.w3.org/1999/xlink" width="241" height="163">
	<path fill="#B1CFFF" d="M65.2672 24.2197C67.4972 24.1834 71.0679 23.7311 73.1191 24.7181C73.6978 27.9798 73.1044 34.5586 73.0704 38.1561C72.9983 45.7992 73.2403 53.4554 73.0033 61.0952C70.3926 59.3924 67.9569 56.9167 65.5913 54.8739Q57.7816 48.1772 50.1383 41.2914C50.8041 45.5169 50.9065 56.7899 50.0772 60.9376C48.1757 61.3493 44.4873 61.7035 42.6845 61.0016C41.6395 59.2814 42.2174 28.7638 42.0013 23.9917C45.8494 26.4575 49.163 29.7844 52.593 32.7806C56.9158 36.5567 61.3141 40.2377 65.6087 44.0476C64.8005 41.2251 64.4946 26.9663 65.2672 24.2197Z"/>
	<path fill="#B1CFFF" d="M207.592 24.1244C208.303 24.0568 208.964 24.0236 209.677 24.0814C210.206 24.3375 210.496 24.6163 210.717 25.1711C211.514 27.1693 210.786 29.7534 209.975 31.6286C208.705 32.8521 195.599 31.1375 192.619 32.253C191.808 32.5563 191.228 33.0885 190.879 33.8831C190.476 34.802 190.493 35.996 190.881 36.9184C192.113 39.8455 198.32 38.6851 200.952 38.8803C202.112 38.9664 203.26 39.3133 204.336 39.7436Q204.843 39.9436 205.327 40.1934Q205.811 40.4432 206.267 40.7403Q206.724 41.0373 207.148 41.3786Q207.573 41.7199 207.961 42.1021Q208.349 42.4842 208.697 42.9034Q209.045 43.3225 209.349 43.7744Q209.653 44.2262 209.911 44.7063Q210.168 45.1864 210.376 45.6899Q210.589 46.1918 210.751 46.7125Q210.912 47.2331 211.021 47.7672Q211.131 48.3013 211.186 48.8436Q211.241 49.386 211.243 49.9311Q211.244 50.4763 211.191 51.0189Q211.138 51.5614 211.031 52.096Q210.924 52.6307 210.765 53.152Q210.605 53.6733 210.395 54.1762Q210.2 54.6598 209.958 55.1218Q209.716 55.5837 209.429 56.0195Q209.143 56.4553 208.815 56.8606Q208.486 57.2658 208.12 57.6367Q207.753 58.0075 207.351 58.3403Q206.95 58.673 206.517 58.9645Q206.085 59.2559 205.626 59.5031Q205.166 59.7503 204.685 59.9509C203.564 60.4174 202.402 60.6637 201.199 60.8003C199.083 61.0404 188.484 61.4976 186.995 60.8774C186.7 59.3829 183.392 54.0681 182.277 53.024C187.741 52.9612 193.308 53.6332 198.767 53.3368C200.091 53.2649 201.549 52.9533 202.452 51.8978C203.024 51.2308 203.282 50.3217 203.185 49.4534C203.064 48.377 202.408 47.0814 201.352 46.6555C200.735 46.4066 199.664 46.5242 198.99 46.5198C194.697 46.4916 190.227 46.847 186.619 44.043C184.322 42.2581 182.939 39.26 182.582 36.4155C182.222 33.5505 183.231 30.4045 185.007 28.1506C189.946 21.8843 200.634 24.9271 207.592 24.1244Z"/>
	<path fill="#B1CFFF" d="M163.704 24.5115C164.108 24.5836 164.367 24.5924 164.678 24.8991C166.138 26.3388 173.564 41.8657 175.111 44.875C177.434 49.3936 179.999 53.8005 182.176 58.393C182.547 59.1747 182.987 60.0039 183.008 60.8837C181.669 61.712 175.833 61.1019 174.082 61.0235C174.085 60.9763 174.089 60.9292 174.09 60.882C174.107 59.5851 165.464 43.7558 164.257 42.5381C161.855 44.3023 156.322 59.9719 153.314 60.9428C152.545 61.1911 146.53 61.3139 145.77 60.9594C145.659 60.2875 145.818 59.8789 146.079 59.2615C147.344 56.2637 149.152 53.3119 150.65 50.4019L160.185 31.8329C161.112 30.0332 163.399 26.5283 163.687 24.6431C163.693 24.5993 163.699 24.5554 163.704 24.5115Z"/>
	<path fill="#B1CFFF" d="M144.376 24.0224C147.318 24.2175 150.26 24.1372 153.205 24.0876C150.617 29.7988 147.51 35.3788 144.64 40.9546C141.112 47.8066 137.705 54.7723 134.03 61.5442C131.064 54.7653 127.454 48.2633 124.02 41.7127Q119.252 33.0036 114.839 24.1091C117.317 24.2485 120.83 23.6765 123.135 24.4099C123.989 24.6814 124.724 25.7164 125.2 26.4358C126.406 28.2578 127.256 30.3679 128.246 32.3144L134.088 43.6775C135.84 40.3765 142.499 25.4336 144.376 24.0224Z"/>
	<path fill="#B1CFFF" d="M31.6253 24.0147C33.4948 24.283 35.8487 23.719 37.56 24.1754C37.8584 24.255 38.2229 24.4673 38.3819 24.7361C38.7278 25.3207 38.8151 25.9777 38.8336 26.6448C38.9361 30.3424 38.6657 34.1587 38.657 37.8729C38.6505 40.6942 39.0677 58.6773 38.6012 60.2807C38.4327 60.86 38.2353 60.9154 37.7355 61.1849C36.1115 61.1785 32.4438 61.4699 31.0364 60.7503C30.192 58.7413 30.3132 32.0048 30.4492 27.8824C30.5003 26.3343 30.4567 25.1087 31.6253 24.0147Z"/>
	<path fill="#B1CFFF" d="M97.6391 22.6654C100.746 23.4761 103.528 23.9807 106.432 25.5161C111.093 27.981 114.235 31.9207 115.765 36.9665C117.452 42.5331 116.022 47.4573 113.354 52.408L112.806 52.8214C111.792 52.9638 110.651 52.0298 109.762 51.4892C104.428 48.2422 109.756 45.0341 108.362 39.378C107.438 35.6283 104.606 32.771 100.969 31.5463C99.7105 31.1224 98.2648 30.9307 97.1253 30.2381C96.9648 30.0043 96.8514 29.7614 96.8141 29.478C96.5639 27.5758 96.4991 24.2145 97.6391 22.6654Z"/>
	<path fill="#B1CFFF" d="M81.3078 30.8963C83.3376 32.0567 85.716 33.5376 87.3687 35.1798C86.7792 36.2539 86.1741 37.3648 85.7778 38.5271C84.7617 41.5079 84.7444 44.8612 86.1771 47.7148C88.7641 52.8677 92.4105 52.7318 97.1791 54.2957C97.1102 55.6712 97.0529 57.0501 96.9627 58.4242C96.8823 59.6493 96.8022 60.724 95.8274 61.579C91.8876 61.3932 87.3482 59.571 84.292 57.1198C80.4587 54.0453 77.9718 49.132 77.4476 44.2715C76.9448 39.6092 78.3569 34.5596 81.3078 30.8963Z"/>
</svg>
